<?xml version="1.0" standalone="no"?>
<!DOCTYPE svg PUBLIC "-//W3C//DTD SVG 20010904//EN"
 "http://www.w3.org/TR/2001/REC-SVG-20010904/DTD/svg10.dtd">
<svg version="1.0" xmlns="http://www.w3.org/2000/svg"
 width="768.000000pt" height="768.000000pt" viewBox="0 0 768.000000 768.000000"
 preserveAspectRatio="xMidYMid meet">
<metadata>
Created by potrace 1.14, written by Peter Selinger 2001-2017
</metadata>
<g transform="translate(0.000000,768.000000) scale(0.100000,-0.100000)"
fill="#000000" stroke="none">
<path d="M4037 7603 c-2 -1 -77 -5 -168 -8 -90 -2 -175 -7 -189 -10 -14 -3
-49 -7 -79 -10 -30 -3 -88 -13 -130 -21 -42 -9 -101 -18 -131 -20 -70 -5 -138
-13 -170 -19 -14 -3 -37 -7 -52 -10 -178 -33 -360 -98 -593 -212 -105 -51
-219 -115 -223 -125 -2 -4 -8 -8 -13 -8 -5 0 -28 -14 -52 -30 -23 -17 -53 -38
-67 -48 -180 -126 -428 -409 -626 -712 -27 -41 -51 -77 -54 -80 -26 -24 -172
-358 -169 -385 0 -3 -2 -18 -5 -33 -14 -63 -17 -79 -22 -127 -3 -27 -7 -66
-10 -85 -15 -133 0 -313 41 -500 15 -67 106 -292 166 -413 45 -89 119 -210
131 -215 4 -2 8 -8 8 -13 0 -37 292 -341 459 -479 23 -19 59 -50 79 -67 20
-18 42 -33 49 -33 6 0 13 -4 15 -8 8 -20 194 -132 398 -239 115 -61 145 -78
280 -158 58 -34 137 -79 175 -100 168 -90 337 -186 345 -195 3 -3 32 -26 66
-50 63 -47 151 -119 191 -157 12 -12 31 -27 41 -35 92 -65 330 -297 392 -382
45 -61 125 -206 114 -206 -4 0 -2 -6 3 -12 9 -11 23 -52 29 -83 1 -5 3 -12 4
-15 32 -85 32 -404 -1 -535 -21 -84 -89 -226 -136 -285 -55 -69 -114 -138
-130 -150 -56 -45 -96 -72 -149 -98 -112 -57 -196 -77 -259 -61 -16 4 -48 10
-70 13 -22 3 -71 13 -110 21 -38 9 -90 20 -115 25 -36 7 -232 60 -321 87 -12
3 -26 -12 -49 -52 l-33 -57 -41 6 c-70 10 -202 42 -334 82 -78 23 -102 24
-102 4 0 -14 -61 -101 -74 -106 -6 -2 -71 14 -143 35 -120 34 -134 36 -146 22
-13 -14 -150 -238 -184 -301 -8 -14 -22 -37 -31 -52 -66 -106 -173 -290 -170
-292 8 -7 324 -132 423 -168 313 -113 632 -207 785 -232 19 -3 49 -8 65 -11
17 -3 39 -8 50 -9 11 -2 48 -9 83 -16 35 -6 75 -13 90 -15 15 -2 38 -7 52 -10
27 -6 139 -24 180 -30 45 -6 124 -17 145 -21 18 -4 267 -17 290 -16 76 4 170
16 260 33 145 28 186 32 335 30 336 -5 389 -4 445 2 33 5 67 10 75 12 8 2 33
6 55 10 22 3 56 10 75 15 19 5 37 9 40 9 3 -1 23 6 45 14 22 8 74 27 115 42
41 15 98 38 125 50 28 12 79 35 115 51 88 39 234 119 293 160 26 19 51 34 56
34 5 0 11 3 13 8 2 4 25 24 51 46 189 151 325 347 416 596 36 97 69 218 87
315 10 54 11 299 1 358 -22 139 -34 185 -85 347 -20 63 -37 120 -38 125 -1 6
-11 44 -22 85 -12 41 -33 120 -47 175 -65 246 -142 431 -240 574 -52 77 -63
91 -140 181 -22 25 -60 70 -85 100 -25 29 -50 58 -55 64 -6 6 -30 36 -55 66
-25 30 -47 57 -50 60 -3 3 -23 27 -45 55 -22 27 -47 57 -55 66 -8 9 -22 25
-30 35 -62 79 -359 433 -377 451 -12 12 -32 24 -43 28 -11 3 -20 10 -20 15 0
4 -8 10 -17 14 -10 3 -31 14 -48 25 -166 104 -528 321 -535 321 -6 0 -10 5
-10 10 0 6 -7 10 -15 10 -8 0 -15 5 -15 10 0 6 -4 10 -9 10 -12 0 -477 284
-503 306 -67 61 -248 383 -264 471 -2 12 -8 33 -13 45 -15 41 -10 158 10 217
20 59 53 135 69 161 5 8 19 33 31 55 80 149 270 376 358 428 24 14 32 13 121
-24 109 -46 331 -155 405 -199 94 -57 95 -57 117 -30 11 14 34 41 51 61 18 20
42 48 54 62 l23 27 57 -30 c61 -32 81 -44 125 -72 31 -22 33 -22 50 -5 18 19
112 126 135 156 l19 23 109 -56 c121 -61 213 -112 234 -129 16 -13 47 19 286
298 66 77 132 154 146 170 15 17 48 55 74 85 26 30 61 71 79 91 69 79 146 167
190 219 46 54 47 55 24 64 -13 6 -51 23 -86 38 -34 15 -65 28 -67 28 -3 0 -24
8 -48 19 -123 55 -493 197 -533 204 -11 2 -26 7 -34 10 -8 3 -37 13 -65 21
-27 8 -88 27 -135 42 -47 14 -89 27 -95 28 -5 2 -17 6 -25 9 -24 9 -86 27
-106 31 -10 2 -46 11 -79 20 -56 14 -75 18 -150 31 -16 3 -43 8 -60 12 -42 8
-292 27 -345 25 -183 -6 -427 -8 -468 -2 -29 3 -54 5 -55 3z m-604 -252 c-64
-28 -245 -129 -253 -141 -3 -4 -16 -13 -30 -20 -88 -46 -309 -245 -420 -379
-146 -175 -335 -449 -398 -576 -62 -125 -80 -170 -105 -265 -36 -136 -41 -185
-41 -385 0 -219 7 -269 59 -434 45 -141 183 -446 227 -498 7 -8 17 -23 23 -32
74 -123 239 -305 414 -458 24 -21 58 -51 75 -68 89 -86 279 -208 526 -338 63
-33 186 -102 272 -153 86 -51 210 -121 275 -155 65 -34 156 -87 203 -116 47
-29 94 -59 105 -66 11 -6 22 -14 25 -17 3 -3 25 -21 50 -40 25 -19 54 -44 66
-55 11 -11 39 -35 62 -53 22 -19 51 -43 64 -54 13 -10 48 -40 78 -66 107 -91
291 -281 327 -338 117 -183 155 -316 156 -544 1 -135 -6 -221 -22 -263 -6 -15
-8 -27 -6 -27 9 0 -45 -133 -77 -189 -131 -233 -312 -365 -570 -415 -46 -9
-93 -19 -105 -21 -32 -7 -28 6 9 32 172 121 354 411 384 613 3 19 8 44 11 55
12 38 10 327 -2 404 -28 172 -88 321 -186 461 -48 69 -277 305 -346 357 -16
12 -41 33 -54 45 -14 13 -50 43 -79 68 -30 25 -70 59 -90 75 -91 79 -231 173
-355 240 -129 69 -260 142 -295 164 -19 11 -42 24 -50 28 -8 3 -17 9 -20 12
-3 3 -16 12 -29 19 -115 66 -188 105 -286 157 -211 112 -370 216 -479 315
-231 208 -299 280 -434 455 -68 87 -219 417 -258 563 -34 128 -39 173 -38 357
2 364 101 588 463 1045 241 305 493 485 916 653 132 53 269 90 289 79 4 -2
-18 -16 -51 -31z m652 -6 c142 -30 202 -47 570 -162 61 -19 119 -38 130 -43
11 -5 47 -18 80 -30 124 -43 375 -145 375 -152 0 -4 -10 -18 -22 -32 -13 -13
-45 -51 -73 -82 -139 -160 -188 -214 -195 -214 -5 0 -21 5 -37 11 -15 6 -37
12 -48 14 -40 7 -80 16 -95 21 -78 28 -339 26 -435 -4 -16 -5 -37 -8 -45 -6
-149 29 -187 33 -300 29 -90 -2 -144 -9 -195 -24 -42 -13 -110 -23 -170 -26
-144 -7 -213 -22 -330 -75 -135 -61 -310 -197 -410 -320 -44 -54 -132 -177
-151 -210 -10 -19 -22 -37 -26 -40 -12 -9 -105 -202 -123 -255 -24 -69 -27
-88 -30 -188 -4 -148 65 -343 186 -525 16 -24 29 -45 29 -48 0 -3 28 -42 61
-88 59 -78 69 -86 208 -171 289 -175 458 -278 561 -341 58 -36 139 -85 180
-110 41 -25 82 -49 90 -54 8 -5 67 -41 130 -81 63 -39 124 -83 136 -97 119
-146 321 -389 329 -398 5 -6 26 -30 45 -54 19 -24 51 -62 70 -85 19 -23 55
-66 80 -95 69 -83 114 -134 125 -142 6 -4 7 -8 3 -8 -3 0 6 -12 20 -28 79 -80
172 -205 222 -297 l33 -60 -59 56 c-89 84 -164 153 -209 190 -22 19 -45 39
-51 44 -7 6 -31 26 -54 44 -23 19 -48 40 -54 46 -31 30 -169 137 -224 174 -51
35 -417 241 -427 241 -2 0 -41 23 -87 50 -46 28 -90 55 -98 60 -8 5 -111 61
-229 125 -290 158 -403 235 -575 395 -93 85 -223 217 -262 266 -21 27 -42 51
-45 54 -4 3 -32 44 -63 92 -92 142 -206 396 -246 548 -12 46 -15 56 -27 125
-10 53 -9 344 1 420 4 33 12 67 17 77 5 9 8 21 7 25 -2 9 37 133 50 160 5 10
26 52 47 93 131 261 465 676 672 833 77 58 254 167 272 167 6 0 11 5 11 10 0
6 4 10 10 10 5 0 50 20 100 44 50 25 100 48 113 52 12 3 40 15 62 25 22 10 74
29 115 43 84 29 122 29 255 1z m1455 -105 c74 -24 140 -45 145 -46 16 -4 278
-103 300 -114 25 -11 113 -46 139 -54 18 -6 18 -7 0 -34 -10 -15 -22 -32 -28
-38 -6 -6 -36 -39 -66 -74 -77 -90 -192 -222 -210 -242 -8 -9 -64 -75 -125
-147 -60 -71 -115 -130 -121 -130 -7 -1 -45 17 -85 39 -41 23 -86 46 -101 51
-35 13 -35 17 0 54 15 17 70 79 122 140 52 60 100 115 105 121 6 6 21 24 35
40 14 16 68 79 120 139 52 61 99 112 103 113 9 5 -12 32 -24 32 -7 0 -82 31
-144 61 -56 26 -291 119 -302 119 -6 0 -15 5 -19 12 -5 7 -2 9 7 6 8 -3 75
-25 149 -48z m-605 20 c3 -6 -1 -7 -9 -4 -18 7 -21 14 -7 14 6 0 13 -4 16 -10z
m125 -35 c72 -18 550 -204 550 -214 0 -7 -128 -157 -225 -265 -11 -13 -45 -51
-75 -86 -30 -35 -67 -77 -81 -94 l-27 -30 -40 18 -41 19 67 76 c37 42 72 81
77 87 6 6 28 32 50 58 22 27 49 58 60 71 11 12 35 39 54 61 19 21 45 51 59 66
l25 27 -69 32 c-88 40 -247 106 -299 125 -22 8 -49 18 -60 23 -11 5 -42 17
-70 27 -67 23 -83 39 -20 19 28 -9 57 -18 65 -20z m-2691 -238 c-57 -56 -118
-118 -135 -137 -45 -52 -194 -245 -250 -325 -26 -38 -51 -72 -54 -75 -10 -8
-105 -169 -138 -235 -54 -105 -101 -245 -116 -349 -4 -21 -9 -43 -13 -49 -11
-17 -12 -368 -2 -422 5 -27 11 -64 14 -82 14 -111 116 -382 207 -553 111 -209
235 -355 523 -621 28 -25 86 -73 130 -107 44 -34 85 -66 91 -71 27 -21 220
-134 324 -188 189 -99 453 -252 458 -265 2 -4 11 -8 21 -8 9 0 21 -4 27 -9 5
-5 50 -31 99 -57 163 -85 321 -188 400 -261 11 -10 45 -38 75 -63 30 -25 60
-49 66 -55 6 -5 40 -35 75 -65 219 -188 323 -306 398 -450 75 -144 96 -248 94
-480 0 -113 -5 -164 -22 -230 -59 -233 -224 -450 -418 -549 -59 -30 -69 -26
-33 12 42 45 133 180 169 253 36 73 77 208 87 291 9 68 10 306 2 378 -39 331
-195 557 -638 925 -30 25 -61 52 -70 60 -103 98 -264 206 -485 325 -99 54
-192 106 -207 116 -14 11 -30 19 -34 19 -4 0 -15 6 -23 14 -9 7 -43 28 -76 47
-33 18 -78 43 -100 55 -22 13 -71 39 -110 60 -356 188 -463 265 -735 534 -184
182 -290 335 -385 555 -9 22 -21 49 -26 60 -34 78 -91 245 -83 245 2 0 -1 11
-6 24 -17 45 -24 130 -24 286 1 154 6 217 23 278 5 18 8 32 6 32 -10 0 61 183
101 261 92 179 335 508 494 669 98 100 236 210 327 262 29 17 56 34 59 39 3 5
8 9 11 9 3 0 -41 -46 -98 -103z m2422 -481 c35 -8 46 -14 40 -24 -6 -10 -17
-9 -53 7 -25 11 -49 25 -53 32 -6 8 -4 10 5 4 7 -4 34 -13 61 -19z m-341 -56
c62 -21 251 -99 258 -105 2 -2 -6 -13 -17 -24 l-21 -21 -47 28 c-54 32 -268
136 -301 146 -12 4 -22 11 -22 16 0 10 42 -2 150 -40z m-570 7 l41 -12 -57
-55 c-31 -30 -90 -100 -130 -155 -41 -55 -78 -105 -82 -110 -5 -6 -28 -44 -52
-84 -181 -311 -193 -496 -52 -789 42 -87 95 -176 162 -273 69 -99 80 -111 145
-150 78 -47 570 -346 615 -374 19 -12 39 -22 44 -23 5 0 12 -4 15 -9 3 -5 110
-71 236 -147 127 -76 239 -148 250 -160 11 -12 38 -44 61 -72 60 -71 263 -316
277 -334 24 -30 222 -266 272 -325 28 -33 60 -71 72 -85 19 -22 72 -86 123
-146 44 -52 104 -150 144 -236 51 -110 84 -210 160 -488 31 -113 71 -254 90
-315 19 -60 36 -124 39 -142 3 -17 7 -35 10 -40 19 -30 28 -280 15 -386 -25
-191 -125 -450 -235 -605 -40 -57 -156 -180 -219 -232 -30 -25 -124 -90 -130
-90 -3 0 -18 -8 -32 -19 -73 -51 -481 -233 -547 -243 -11 -2 -24 -6 -30 -9 -8
-5 -66 -18 -92 -21 -5 0 -18 -4 -30 -9 -14 -5 -23 -5 -23 1 0 6 4 10 10 10 14
0 164 74 168 83 2 4 12 7 23 7 10 0 19 5 19 10 0 6 5 10 11 10 14 0 169 101
229 149 141 112 282 291 362 460 51 107 113 293 133 396 13 70 29 210 27 240
-8 133 -14 189 -22 230 -6 28 -12 59 -14 70 -7 37 -44 169 -76 270 -17 55 -32
109 -35 120 -2 11 -15 61 -29 110 -15 50 -29 103 -32 120 -12 65 -106 330
-145 407 -63 126 -113 197 -264 374 -33 39 -69 82 -80 95 -51 62 -121 144
-125 149 -3 3 -35 41 -70 85 -36 44 -70 85 -76 90 -6 6 -51 60 -100 120 -49
61 -93 115 -99 121 -14 16 -41 48 -108 130 -44 55 -78 84 -145 124 -48 29 -95
60 -104 68 -10 8 -18 12 -18 8 0 -4 -18 7 -40 24 -22 17 -40 28 -40 24 0 -4
-8 0 -17 8 -10 8 -58 39 -108 69 -49 29 -92 56 -95 59 -3 3 -26 16 -52 30 -27
13 -48 28 -48 32 0 5 -5 8 -11 8 -6 0 -34 15 -62 34 -29 18 -96 60 -150 92
-417 250 -392 232 -469 349 -166 255 -231 446 -197 580 5 22 11 48 14 57 7 31
74 167 116 235 140 229 291 384 461 476 45 24 61 27 105 22 28 -3 70 -11 93
-18z m1187 -39 c21 -10 21 -12 5 -34 -21 -28 -33 -29 -72 -6 l-30 19 20 21
c20 21 32 21 77 0z m-1748 -45 c-29 -32 -56 -60 -59 -63 -3 -3 -30 -39 -61
-80 -131 -178 -223 -349 -258 -481 -22 -84 -23 -227 -2 -294 58 -180 140 -337
267 -510 57 -78 60 -81 299 -225 94 -57 216 -131 273 -166 57 -35 108 -64 113
-64 5 0 9 -4 9 -10 0 -5 4 -10 9 -10 6 0 53 -27 106 -60 53 -33 100 -60 105
-60 4 0 10 -3 12 -7 2 -5 81 -55 176 -112 128 -77 182 -116 209 -150 21 -25
40 -48 43 -51 3 -3 44 -52 90 -110 47 -58 90 -110 96 -116 5 -6 26 -30 45 -54
18 -23 42 -52 52 -63 11 -12 35 -42 55 -66 37 -45 121 -145 199 -237 258 -306
292 -354 355 -504 54 -127 70 -178 159 -515 12 -44 24 -87 27 -95 3 -8 6 -19
7 -25 2 -5 19 -62 38 -126 57 -185 71 -268 71 -419 0 -123 -9 -222 -21 -243
-3 -5 -7 -22 -10 -39 -2 -17 -15 -62 -28 -99 -12 -37 -20 -70 -17 -73 3 -4 0
-6 -6 -6 -7 0 -12 -8 -12 -18 0 -39 -117 -249 -185 -332 -71 -87 -256 -250
-284 -250 -5 0 -11 -3 -13 -7 -3 -7 -108 -75 -108 -70 0 1 41 44 90 96 50 51
90 97 90 101 0 5 6 15 13 22 26 26 87 129 131 220 70 149 124 325 144 473 12
87 13 265 2 325 -4 25 -11 63 -14 85 -9 56 -33 146 -66 250 -24 75 -40 130
-56 190 -2 6 -14 52 -28 102 -14 51 -28 103 -30 115 -9 42 -56 198 -83 271
-48 130 -152 315 -228 402 -14 17 -34 39 -43 50 -121 145 -169 202 -179 213
-7 7 -29 34 -50 60 -21 26 -41 49 -44 52 -3 3 -85 102 -183 220 -98 118 -187
226 -199 240 -11 14 -32 39 -46 55 -14 17 -39 47 -55 68 -16 20 -33 37 -37 37
-6 0 -267 158 -509 309 -14 8 -27 16 -30 16 -3 1 -30 17 -60 36 -30 20 -118
74 -195 120 -77 46 -142 87 -145 90 -3 3 -10 8 -15 10 -6 2 -65 37 -131 77
l-121 73 -80 122 c-133 202 -201 367 -201 487 0 112 59 254 179 434 104 157
173 236 279 321 53 42 182 123 199 125 2 0 -20 -26 -50 -57z m2051 -4530 c26
-137 20 -315 -14 -473 -26 -116 -116 -334 -180 -434 -75 -118 -211 -254 -338
-340 -81 -54 -305 -172 -395 -207 -13 -5 -33 -13 -45 -18 -33 -13 -62 -24 -68
-25 -3 -1 -10 -5 -17 -9 -10 -6 -106 6 -213 28 -14 3 -37 7 -52 10 -16 3 -43
8 -60 11 -18 3 -42 7 -53 9 -48 7 -153 26 -190 35 -22 5 -53 12 -70 16 -164
35 -795 245 -829 276 -6 4 -18 8 -28 8 -23 0 -23 11 0 41 10 13 35 53 56 89
22 36 40 66 41 67 0 1 71 4 156 7 84 3 170 7 189 10 33 4 54 7 204 22 33 3 69
8 80 10 55 13 118 17 191 14 221 -9 328 -5 605 25 408 43 632 160 826 430 92
129 169 316 177 434 3 50 14 36 27 -36z m-3157 -784 c26 -6 47 -15 47 -20 0
-7 -36 -71 -90 -159 -87 -143 -110 -183 -110 -191 0 -5 -5 -9 -11 -9 -29 0 5
-25 76 -56 44 -19 89 -39 100 -44 11 -5 52 -20 90 -33 99 -35 156 -59 152 -63
-7 -7 -363 119 -524 185 l-42 17 32 53 c18 29 41 68 52 86 11 18 49 82 85 143
45 77 70 110 80 107 8 -2 36 -9 63 -16z m269 -65 c63 -12 194 -34 233 -40 11
-1 21 -3 22 -3 1 -1 -12 -25 -29 -53 -17 -29 -37 -64 -45 -78 -8 -14 -32 -54
-53 -88 -22 -35 -38 -67 -35 -71 4 -8 336 -142 357 -145 14 -2 20 -16 7 -16
-8 0 -20 5 -27 12 -7 7 -12 9 -12 6 0 -9 -328 103 -542 185 l-88 33 75 124
c41 67 75 126 75 131 0 9 22 18 32 12 5 -2 18 -6 30 -9z m28 -520 c0 -2 -7 -4
-15 -4 -8 0 -15 4 -15 10 0 5 7 7 15 4 8 -4 15 -8 15 -10z m35 -14 c3 -6 -1
-7 -9 -4 -18 7 -21 14 -7 14 6 0 13 -4 16 -10z"/>
</g>
</svg>
