<svg width="409" height="254" viewBox="0 0 409 254" fill="none" xmlns="http://www.w3.org/2000/svg">
<g filter="url(#filter0_d_66_39)">
<rect x="2.65625" y="2.95898" width="400" height="233" rx="25" fill="white"/>
</g>
<g clip-path="url(#clip0_66_39)">
<path d="M316.073 52.4105H318.506C320.37 38.1036 306.028 27.2391 289.579 25.9128C296.039 27.3946 301.951 30.6663 306.637 35.3529C311.323 40.0394 314.593 45.9512 316.073 52.4105V52.4105Z" fill="#F2F2F2"/>
<path d="M278.212 95.0963C276.835 95.0795 275.516 95.0331 274.255 94.957C275.564 95.1587 276.892 95.2055 278.212 95.0963V95.0963Z" fill="#F2F2F2"/>
<path d="M247.598 60.1898C247.915 41.3447 262.935 26.0082 281.786 26.0082C284.375 25.7333 286.984 25.7014 289.579 25.9128C284.432 24.7449 279.087 24.7505 273.942 25.9293C268.797 27.108 263.983 29.4297 259.858 32.722C255.733 36.0144 252.402 40.193 250.112 44.948C247.822 49.703 246.632 54.9124 246.63 60.1898C246.63 78.0591 247.27 93.3043 274.255 94.957C260.583 92.8809 247.349 74.9875 247.598 60.1898Z" fill="#F2F2F2"/>
<path d="M315.67 60.7404C309.49 71.3101 285.193 79.0618 281.786 94.372C280.627 94.7523 279.428 94.9954 278.212 95.0963C279.332 95.11 280.487 95.1056 281.687 95.078C300.888 95.078 316.638 79.8638 316.935 60.7404L315.67 60.7404Z" fill="#F2F2F2"/>
<path d="M284.545 85.8755C280.052 76.1294 278.084 65.6256 279.462 54.1183C279.249 52.7796 279.996 51.4381 281.131 51.1195L301.475 45.4369C302.61 45.1213 303.704 45.9489 303.919 47.2869L309.002 79.0441C309.215 80.3828 308.469 81.7243 307.334 82.0429L286.99 87.7255C285.855 88.0411 284.761 87.2135 284.545 85.8755Z" fill="#F2F2F2"/>
<path d="M294.181 48.9501C294.474 46.6811 293.176 44.6434 291.282 44.3987C289.388 44.1539 287.614 45.7949 287.321 48.0639C287.028 50.3329 288.326 52.3706 290.22 52.6153C292.114 52.86 293.888 51.2191 294.181 48.9501Z" fill="#F2F2F2"/>
<path d="M256.978 70.3454C252.485 60.5993 250.517 50.0955 251.895 38.5882C251.682 37.2495 252.428 35.908 253.563 35.5894L273.907 29.9068C275.043 29.5912 276.136 30.4188 276.352 31.7567L281.435 63.514C281.648 64.8527 280.901 66.1942 279.766 66.5128L259.423 72.1954C258.287 72.511 257.194 71.6834 256.978 70.3454Z" fill="#F2F2F2"/>
<path d="M266.614 33.4199C266.907 31.151 265.609 29.1132 263.715 28.8685C261.82 28.6238 260.047 30.2648 259.754 32.5338C259.46 34.8027 260.758 36.8405 262.653 37.0852C264.547 37.3299 266.32 35.6889 266.614 33.4199Z" fill="#F2F2F2"/>
<path d="M284.823 175.857H80V176.524H284.823V175.857Z" fill="#000000"/>
<path d="M163.315 97.2233C163.073 96.3779 166.451 104.127 165.647 104.22C161.987 104.64 153.877 106.533 151.328 107.552C151.213 107.539 151.098 107.526 150.987 107.509C150.714 107.479 150.447 107.436 150.183 107.386C144.248 106.263 139.757 101.388 139.635 95.5041C139.629 95.4208 139.629 95.3341 139.629 95.2508C139.628 94.8446 139.649 94.4386 139.693 94.0347C139.749 93.4831 139.845 92.9364 139.98 92.3987L139.966 92.3954C137.603 90.1763 138.599 86.0614 141.611 84.3254C142.919 83.5731 144.371 83.1021 145.872 82.9427C146.279 82.8985 146.688 82.8763 147.097 82.876H150.943C151.739 82.7046 152.546 82.5877 153.357 82.5262H153.364C161.106 81.9364 167.211 86.6544 166.64 92.3954C166.637 92.402 166.63 92.4087 166.627 92.4154C166.461 92.6619 166.316 92.8952 166.188 93.1184C166.063 93.3283 165.958 93.5282 165.867 93.7182C165.161 95.1842 166.975 97.029 165.772 97.3733C164.173 97.8313 169.98 112.883 163.648 112.883C166.728 113.759 163.981 99.5557 163.315 97.2233Z" fill="#000000"/>
<path d="M198.642 242.716L203.636 242.674L205.846 222.969L198.477 223.031L198.642 242.716Z" fill="#B6888E"/>
<path d="M214.636 250.655C214.641 251.247 214.41 251.816 213.995 252.238C213.58 252.66 213.015 252.9 212.423 252.906L202.496 252.989L200.758 249.467L200.119 253.007L196.373 253.041L197.319 240.415L198.622 240.328L203.938 239.962L205.653 239.847L205.683 243.419L213.658 248.827C213.957 249.03 214.202 249.302 214.372 249.621C214.543 249.939 214.633 250.294 214.636 250.655Z" fill="#000000"/>
<path d="M204.972 232.833C202.986 232.594 197.974 232.167 197.974 232.167C197.974 232.167 195.607 227.229 195.991 225.693C196.367 224.15 197.307 223.837 196.434 223.031C194.308 215.174 194.648 202.413 194.648 202.413C194.648 202.413 183.204 196.872 171.616 190.458C160.289 184.184 148.825 177.077 147.788 173.495C147.104 170.933 146.645 168.316 146.415 165.675C146.242 163.942 146.135 162.243 146.069 160.72C145.912 157.235 145.975 154.659 145.975 154.659L160.415 154.42L169.98 154.2H170.98V155.866L173.492 160.137C173.492 160.137 177.835 165.185 177.325 165.655C176.708 166.225 176.895 166.731 179.084 167.144C179.707 167.253 180.341 167.279 180.971 167.221C184.507 166.951 185.986 168.973 186.073 169.417C186.666 172.545 192.615 179.342 198.187 185.143H198.19C203.332 190.501 208.151 195.006 208.151 195.006L208.425 200.754L209.708 227.626C209.708 227.626 207.301 226.28 209.451 229.182C211.601 232.087 206.958 233.07 204.972 232.833Z" fill="#000000"/>
<path d="M259.147 170.349L261.185 165.791L244.182 155.587L241.173 162.313L259.147 170.349Z" fill="#B6888E"/>
<path d="M273.02 159.109C273.56 159.351 273.982 159.797 274.193 160.35C274.405 160.903 274.388 161.517 274.147 162.058L270.093 171.119L266.167 171.234L269.121 173.287L267.594 176.707L256.503 170.595L256.966 169.374L258.844 164.388L259.453 162.781L262.715 164.24L270.951 159.238C271.259 159.051 271.609 158.941 271.969 158.919C272.33 158.896 272.69 158.962 273.02 159.109V159.109Z" fill="#000000"/>
<path d="M250.4 159.318C250.389 159.344 250.375 159.367 250.363 159.389C249.434 161.093 247.909 165.038 247.814 165.281C247.812 165.286 247.81 165.291 247.81 165.296C247.81 165.296 242.779 165.036 241.493 164.114C240.205 163.185 242.155 164.654 239.184 162.711C237.648 161.701 232.388 160.124 227.675 158.835C223.291 157.637 219.385 156.694 219.385 156.694C219.385 156.694 215.932 159.836 210.93 164.178L210.927 164.181C206.281 168.205 200.293 173.265 194.49 177.796C182.067 181.449 168.955 184.615 165.677 182.836C163.373 181.524 161.187 180.012 159.145 178.32L162.521 169.474L171.447 160.128L180.844 156.311L184.519 154.816L189.667 152.728L217.534 141.408L248.395 152.095C248.395 152.095 246.245 153.832 249.743 152.916C253.194 152.014 251.371 157.49 250.4 159.318Z" fill="#000000"/>
<path d="M152.984 107.886H162.981L164.556 111.359L171.251 114.342C172.122 114.731 172.889 115.318 173.491 116.058C174.093 116.797 174.512 117.668 174.716 118.599C177.127 129.618 174.077 131.908 173.979 135.541C173.646 147.869 171.929 150.321 172.121 153.365C172.178 154.275 172.734 157.877 174.523 157.537C176.312 157.198 175.348 158.622 175.771 159.176C176.137 159.654 178.06 159.019 176.853 160.608C175.645 162.196 180.808 166.528 177.645 166.528C171.646 166.528 159.649 169.527 154.983 169.527C150.318 169.527 146.712 170.91 144.652 170.859C143.397 170.829 143.789 164.976 144.291 159.907C144.405 158.759 146.609 158.789 144.631 156.661C142.653 154.533 144.981 153.427 144.985 152.867C144.99 152.272 146.107 150.773 144.713 148.321C143.319 145.87 144.604 146.884 144.544 146.114C144.077 140.182 143.408 132.618 143.408 132.618L140.461 124.324C139.708 122.205 139.807 119.875 140.739 117.827C141.671 115.78 143.361 114.174 145.454 113.348L148.911 111.985L152.984 107.886Z" fill="#F2F2F2"/>
<path d="M223.2 104.827C222.978 105.241 222.668 105.602 222.293 105.885C221.917 106.168 221.484 106.366 221.025 106.466C220.565 106.565 220.089 106.564 219.63 106.461C219.171 106.359 218.74 106.158 218.366 105.872L204.283 113.844L201.119 110.492L217.916 101.146C218.444 100.553 219.17 100.173 219.959 100.08C220.747 99.987 221.542 100.186 222.193 100.64C222.845 101.094 223.307 101.77 223.492 102.542C223.678 103.314 223.574 104.127 223.2 104.827V104.827Z" fill="#B6888E"/>
<path d="M159.787 123.644L159.572 126.211L187.611 125.851L215.52 110.164L211.44 103.885L186.909 114.197L169.474 114.551C167.021 114.6 164.673 115.557 162.883 117.237C161.094 118.916 159.991 121.199 159.787 123.644V123.644Z" fill="#F2F2F2"/>
<path d="M156.403 106.055C161.432 106.055 165.509 101.98 165.509 96.9518C165.509 91.924 161.432 87.8482 156.403 87.8482C151.375 87.8482 147.298 91.924 147.298 96.9518C147.298 101.98 151.375 106.055 156.403 106.055Z" fill="#B6888E"/>
<path d="M166.64 92.8918C166.488 92.9718 166.34 93.0451 166.188 93.1184C166.029 93.195 165.87 93.2717 165.712 93.3416C162.663 94.7244 160.181 94.8777 158.675 92.8918C158.635 91.8469 158.4 90.8187 157.983 89.8598C158.057 90.9314 157.774 91.9973 157.179 92.8918H154.147C151.024 94.9643 149.42 95.1809 151.588 101.985C152.192 103.881 154.596 114.913 153.65 116.549C153.377 116.519 150.447 107.436 150.183 107.386C144.248 106.263 139.757 101.388 139.635 95.5041C139.642 95.2042 139.662 94.9043 139.693 94.6111C140.084 94.0234 140.514 93.4624 140.979 92.9318C140.977 91.3589 141.339 89.8069 142.036 88.397C142.918 86.6109 144.294 85.1147 146 84.0855C147.017 83.5925 148.077 83.1943 149.167 82.896C149.194 82.8893 149.218 82.8827 149.245 82.876C149.579 82.786 149.92 82.7028 150.261 82.6328C150.966 82.4841 151.678 82.3761 152.395 82.3096C152.446 82.3063 152.496 82.3029 152.544 82.3029C152.83 82.3036 153.111 82.3807 153.357 82.5262C153.361 82.5262 153.361 82.5295 153.364 82.5295C153.54 82.6324 153.694 82.7695 153.816 82.9327C154.032 83.2072 154.149 83.5465 154.147 83.8956H157.524C157.649 83.8956 157.774 83.8989 157.899 83.9056C160.152 83.9826 162.296 84.8976 163.91 86.4715C165.524 88.0454 166.493 90.165 166.627 92.4154C166.637 92.5753 166.64 92.7319 166.64 92.8918Z" fill="#000000"/>
<path d="M143.986 94.5578C147.299 94.5578 149.984 91.8726 149.984 88.5603C149.984 85.248 147.299 82.5628 143.986 82.5628C140.673 82.5628 137.987 85.248 137.987 88.5603C137.987 91.8726 140.673 94.5578 143.986 94.5578Z" fill="#000000"/>
<path d="M151.317 83.8956C151.432 87.2059 148.632 89.8931 145.319 89.8931C143.728 89.8931 142.202 89.2612 141.077 88.1365C139.952 87.0117 139.32 85.4862 139.32 83.8956C139.32 80.5833 143.332 80.549 145.319 77.8981C148.129 74.148 151.163 79.4313 151.317 83.8956Z" fill="#000000"/>
<path d="M159.161 177.717C158.229 163.898 160.956 150.9 168.529 138.988C168.719 138.204 169.213 137.528 169.901 137.108C170.59 136.688 171.417 136.558 172.201 136.746L201.456 143.82C202.24 144.01 202.916 144.504 203.336 145.192C203.756 145.881 203.886 146.708 203.698 147.492L194.329 186.221C194.139 187.004 193.645 187.68 192.957 188.101C192.268 188.521 191.441 188.651 190.657 188.462L161.403 181.388C160.619 181.198 159.943 180.704 159.522 180.016C159.102 179.328 158.972 178.501 159.161 177.717V177.717Z" fill="#F2F2F2"/>
<path opacity="0.2" d="M164.894 180.652C164.11 180.461 163.434 179.968 163.013 179.279C162.593 178.591 162.463 177.764 162.652 176.98C161.72 163.161 164.447 150.163 172.02 138.251C172.147 137.737 172.409 137.266 172.777 136.885L172.201 136.746C171.417 136.558 170.59 136.688 169.901 137.108C169.213 137.528 168.719 138.204 168.529 138.988C160.956 150.9 158.229 163.898 159.161 177.717C158.972 178.501 159.102 179.328 159.522 180.016C159.942 180.704 160.619 181.198 161.403 181.388L190.657 188.462C191.177 188.586 191.721 188.57 192.233 188.416C192.745 188.263 193.207 187.976 193.572 187.586L164.894 180.652Z" fill="black"/>
<path d="M191.381 164.348L171.764 159.662C171.452 159.587 171.182 159.392 171.015 159.118C170.847 158.845 170.794 158.516 170.869 158.204C170.943 157.892 171.139 157.623 171.412 157.455C171.685 157.287 172.014 157.234 172.326 157.308L191.943 161.994C192.254 162.07 192.523 162.265 192.69 162.539C192.857 162.812 192.909 163.14 192.835 163.451C192.761 163.763 192.566 164.032 192.293 164.2C192.021 164.368 191.693 164.421 191.381 164.348L191.381 164.348Z" fill="white"/>
<path d="M177.622 154.239L173.306 153.208C172.994 153.134 172.724 152.94 172.555 152.667C172.387 152.394 172.333 152.066 172.407 151.754C172.481 151.441 172.675 151.171 172.948 151.002C173.22 150.834 173.549 150.78 173.861 150.853L173.868 150.855L178.184 151.886C178.495 151.961 178.764 152.157 178.931 152.43C179.098 152.703 179.15 153.031 179.076 153.343C179.001 153.654 178.807 153.923 178.534 154.091C178.261 154.259 177.933 154.313 177.622 154.239V154.239Z" fill="white"/>
<path d="M188.908 174.695L169.291 170.009C168.98 169.934 168.711 169.738 168.544 169.465C168.377 169.192 168.324 168.863 168.399 168.552C168.473 168.24 168.668 167.971 168.941 167.803C169.214 167.635 169.542 167.582 169.854 167.655L189.471 172.341C189.626 172.378 189.772 172.444 189.901 172.537C190.03 172.63 190.14 172.747 190.224 172.882C190.308 173.017 190.364 173.168 190.389 173.325C190.415 173.482 190.409 173.642 190.373 173.797C190.337 173.952 190.27 174.098 190.177 174.227C190.084 174.356 189.966 174.465 189.831 174.549C189.696 174.632 189.545 174.689 189.388 174.714C189.231 174.739 189.071 174.733 188.916 174.697L188.908 174.695Z" fill="white"/>
<path d="M190.145 169.521L170.527 164.836C170.215 164.761 169.945 164.566 169.777 164.293C169.609 164.02 169.556 163.691 169.63 163.379C169.704 163.066 169.899 162.796 170.173 162.628C170.446 162.46 170.775 162.407 171.087 162.481L171.09 162.482L190.707 167.168C191.018 167.243 191.287 167.439 191.454 167.712C191.622 167.985 191.674 168.313 191.599 168.625C191.525 168.936 191.33 169.206 191.057 169.374C190.785 169.542 190.456 169.595 190.145 169.521L190.145 169.521Z" fill="white"/>
<path d="M185.998 145.219C188.784 145.219 191.043 142.961 191.043 140.175C191.043 137.388 188.784 135.13 185.998 135.13C183.211 135.13 180.952 137.388 180.952 140.175C180.952 142.961 183.211 145.219 185.998 145.219Z" fill="#000000"/>
<path d="M160.556 180.605C160.144 180.377 159.787 180.063 159.509 179.684C159.23 179.305 159.038 178.87 158.944 178.409C158.851 177.949 158.858 177.473 158.967 177.015C159.075 176.558 159.282 176.129 159.572 175.759L151.78 161.577L155.174 158.458L164.305 175.37C164.891 175.905 165.261 176.636 165.344 177.426C165.427 178.215 165.218 179.007 164.756 179.653C164.294 180.298 163.611 180.751 162.837 180.927C162.063 181.102 161.251 180.988 160.556 180.605H160.556Z" fill="#B6888E"/>
<path d="M151.455 117.826L143.074 117.018C142.683 116.98 142.289 117.025 141.916 117.148C141.543 117.272 141.201 117.472 140.91 117.736C140.619 118 140.387 118.322 140.228 118.681C140.069 119.041 139.987 119.429 139.987 119.822V144.755L155.316 172.859L161.648 168.86L151.651 144.204L151.455 117.826Z" fill="#F2F2F2"/>
<path d="M217.615 115.803C219.558 102.09 224.911 89.9348 234.781 79.8435C235.13 79.1161 235.752 78.5565 236.513 78.2875C237.273 78.0185 238.109 78.062 238.838 78.4086L266 91.3706C266.728 91.7188 267.287 92.3413 267.556 93.1016C267.826 93.8619 267.782 94.6978 267.435 95.426L250.269 131.386C249.921 132.113 249.298 132.673 248.537 132.942C247.777 133.211 246.941 133.167 246.213 132.82L219.05 119.858C218.322 119.51 217.763 118.888 217.494 118.127C217.225 117.367 217.268 116.531 217.615 115.803V115.803Z" fill="#F2F2F2"/>
<path opacity="0.2" d="M222.618 119.858C221.89 119.51 221.331 118.888 221.062 118.127C220.793 117.367 220.836 116.531 221.183 115.803C223.126 102.09 228.479 89.9347 238.349 79.8434C238.58 79.367 238.933 78.96 239.372 78.6636L238.838 78.4085C238.109 78.062 237.273 78.0184 236.513 78.2874C235.752 78.5564 235.13 79.116 234.781 79.8434C224.911 89.9347 219.558 102.09 217.615 115.803C217.268 116.531 217.225 117.367 217.494 118.127C217.763 118.888 218.322 119.51 219.05 119.858L246.213 132.82C246.696 133.049 247.231 133.146 247.764 133.101C248.296 133.056 248.808 132.871 249.246 132.565L222.618 119.858Z" fill="black"/>
<path d="M251.902 109.376L233.676 100.74C233.386 100.602 233.162 100.355 233.054 100.053C232.946 99.7511 232.963 99.4184 233.1 99.1284C233.238 98.8384 233.485 98.6149 233.787 98.507C234.089 98.3991 234.422 98.4157 234.712 98.5531L252.939 107.189C253.227 107.327 253.45 107.574 253.557 107.876C253.664 108.177 253.647 108.509 253.51 108.798C253.373 109.088 253.127 109.311 252.825 109.419C252.524 109.527 252.192 109.512 251.902 109.376L251.902 109.376Z" fill="white"/>
<path d="M240.528 96.6436L236.518 94.7438C236.374 94.6763 236.245 94.5811 236.137 94.4636C236.03 94.3462 235.947 94.2087 235.893 94.0592C235.839 93.9096 235.815 93.7509 235.823 93.5921C235.83 93.4333 235.869 93.2775 235.936 93.1336C236.004 92.9897 236.099 92.8605 236.217 92.7535C236.335 92.6465 236.472 92.5637 236.622 92.5098C236.771 92.456 236.93 92.4321 237.089 92.4397C237.248 92.4472 237.404 92.486 237.547 92.5538L237.554 92.5571L241.564 94.4569C241.853 94.5949 242.076 94.8419 242.183 95.1437C242.29 95.4455 242.273 95.7775 242.136 96.0669C241.999 96.3563 241.753 96.5796 241.451 96.6877C241.15 96.7958 240.818 96.78 240.528 96.6436V96.6436Z" fill="white"/>
<path d="M247.345 118.989L229.119 110.353C228.83 110.215 228.608 109.968 228.5 109.667C228.393 109.365 228.41 109.033 228.547 108.743C228.684 108.454 228.931 108.231 229.232 108.123C229.534 108.014 229.866 108.03 230.156 108.167L248.382 116.802C248.526 116.87 248.655 116.965 248.762 117.083C248.869 117.2 248.952 117.337 249.006 117.487C249.059 117.636 249.083 117.795 249.076 117.954C249.069 118.112 249.03 118.268 248.962 118.412C248.895 118.556 248.799 118.685 248.682 118.792C248.564 118.899 248.427 118.982 248.278 119.035C248.128 119.089 247.969 119.113 247.811 119.106C247.652 119.098 247.496 119.06 247.352 118.992L247.345 118.989Z" fill="white"/>
<path d="M249.624 114.182L231.397 105.547C231.107 105.41 230.883 105.163 230.775 104.861C230.667 104.559 230.683 104.226 230.82 103.936C230.957 103.646 231.204 103.422 231.506 103.314C231.808 103.205 232.141 103.222 232.431 103.359L232.434 103.36L250.66 111.996C250.949 112.134 251.172 112.381 251.279 112.682C251.386 112.984 251.369 113.316 251.232 113.605C251.095 113.895 250.849 114.118 250.547 114.226C250.246 114.334 249.914 114.318 249.624 114.182L249.624 114.182Z" fill="white"/>
<path d="M251.628 89.6566C254.415 89.6566 256.674 87.3979 256.674 84.6117C256.674 81.8255 254.415 79.5668 251.628 79.5668C248.842 79.5668 246.582 81.8255 246.582 84.6117C246.582 87.3979 248.842 89.6566 251.628 89.6566Z" fill="#000000"/>
<path d="M295.171 133.568C289.699 121.699 287.303 108.907 288.981 94.8926C288.722 93.2623 289.631 91.6285 291.013 91.2405L315.788 84.32C317.171 83.9357 318.503 84.9436 318.765 86.573L324.956 125.248C325.215 126.879 324.306 128.512 322.924 128.9L298.149 135.821C296.766 136.205 295.434 135.197 295.171 133.568Z" fill="#F2F2F2"/>
<path opacity="0.2" d="M300.56 133.589C299.177 133.973 297.846 132.965 297.583 131.336C292.111 119.467 289.714 106.675 291.393 92.6607C291.314 92.1403 291.35 91.6089 291.5 91.1043L291.013 91.2405C289.631 91.6285 288.722 93.2622 288.981 94.8925C287.303 108.907 289.699 121.699 295.171 133.568C295.434 135.197 296.766 136.205 298.148 135.821L322.924 128.9C323.396 128.742 323.82 128.467 324.156 128.1C324.493 127.734 324.731 127.288 324.848 126.805L300.56 133.589Z" fill="black"/>
<path d="M315.168 107.127L298.574 111.819C298.024 111.973 297.494 111.573 297.389 110.925C297.329 110.627 297.377 110.317 297.525 110.051C297.672 109.785 297.909 109.58 298.193 109.471L314.787 104.78C315.337 104.626 315.867 105.028 315.971 105.676C316.029 105.974 315.981 106.283 315.834 106.548C315.688 106.814 315.452 107.019 315.168 107.127H315.168Z" fill="white"/>
<path d="M301.179 104.35L297.528 105.383C296.979 105.54 296.447 105.143 296.339 104.495C296.279 104.196 296.326 103.886 296.473 103.619C296.619 103.352 296.856 103.146 297.141 103.037L297.147 103.035L300.798 102.003C301.348 101.85 301.878 102.251 301.981 102.9C302.04 103.197 301.992 103.506 301.845 103.772C301.698 104.037 301.462 104.242 301.179 104.35Z" fill="white"/>
<path d="M316.845 117.446L300.251 122.138C299.701 122.291 299.171 121.89 299.068 121.241C299.009 120.944 299.057 120.635 299.204 120.369C299.351 120.104 299.587 119.899 299.87 119.791L316.464 115.099C317.013 114.941 317.546 115.339 317.653 115.986C317.713 116.285 317.666 116.595 317.519 116.862C317.373 117.129 317.136 117.335 316.852 117.444L316.845 117.446Z" fill="white"/>
<path d="M316.007 112.286L299.413 116.978C298.863 117.135 298.332 116.736 298.226 116.088C298.165 115.789 298.213 115.479 298.36 115.212C298.507 114.946 298.744 114.74 299.029 114.632L299.031 114.631L315.625 109.939C316.175 109.786 316.705 110.187 316.809 110.836C316.868 111.133 316.82 111.442 316.673 111.708C316.526 111.973 316.29 112.178 316.007 112.286L316.007 112.286Z" fill="white"/>
<path d="M306.906 88.5985C307.263 85.8353 305.682 83.3536 303.375 83.0556C301.068 82.7576 298.909 84.756 298.552 87.5193C298.195 90.2825 299.775 92.7642 302.082 93.0622C304.389 93.3602 306.549 91.3617 306.906 88.5985Z" fill="#000000"/>
</g>
<defs>
<filter id="filter0_d_66_39" x="0.65625" y="0.958984" width="408" height="241" filterUnits="userSpaceOnUse" color-interpolation-filters="sRGB">
<feFlood flood-opacity="0" result="BackgroundImageFix"/>
<feColorMatrix in="SourceAlpha" type="matrix" values="0 0 0 0 0 0 0 0 0 0 0 0 0 0 0 0 0 0 127 0" result="hardAlpha"/>
<feOffset dx="2" dy="2"/>
<feGaussianBlur stdDeviation="2"/>
<feComposite in2="hardAlpha" operator="out"/>
<feColorMatrix type="matrix" values="0 0 0 0 0 0 0 0 0 0 0 0 0 0 0 0 0 0 0.2 0"/>
<feBlend mode="normal" in2="BackgroundImageFix" result="effect1_dropShadow_66_39"/>
<feBlend mode="normal" in="SourceGraphic" in2="effect1_dropShadow_66_39" result="shape"/>
</filter>
<clipPath id="clip0_66_39">
<rect width="245" height="228" fill="white" transform="translate(80 25.041)"/>
</clipPath>
</defs>
</svg>
