<svg width="1440" height="420" viewBox="0 0 1440 420" fill="none" xmlns="http://www.w3.org/2000/svg">
<path d="M0 129.938L30 125.633C60 121.004 120 112.883 180 103.95C240 95.0168 300 86.8957 360 82.2667C420 77.9625 480 77.9625 540 69.2729C600 60.9082 660 43.0418 720 60.6646C780 77.9625 840 129.938 900 147.235C960 164.858 1020 146.992 1080 147.235C1140 146.992 1200 164.858 1260 160.229C1320 155.925 1380 129.938 1410 116.944L1440 103.95V0H1410C1380 0 1320 0 1260 0C1200 0 1140 0 1080 0C1020 0 960 0 900 0C840 0 780 0 720 0C660 0 600 0 540 0C480 0 420 0 360 0C300 0 240 0 180 0C120 0 60 0 30 0H0V129.938Z" fill="#000000"/>
<path d="M0 378L48 321.956C96 266.437 192 153.562 288 111.956C384 69.5625 480 98.4375 576 105C672 111.562 768 98.4375 864 90.9562C960 84 1056 84 1152 77.0437C1248 69.5625 1344 56.4375 1392 48.9562L1440 42V0H1392C1344 0 1248 0 1152 0C1056 0 960 0 864 0C768 0 672 0 576 0C480 0 384 0 288 0C192 0 96 0 48 0H0V378Z" fill="#F8F8F8"/>
</svg>
