<svg width="52" height="66" viewBox="0 0 52 66" fill="none" xmlns="http://www.w3.org/2000/svg">
<g id="Logo-secid-clean">
<g id="Logo">
<path id="S-3" d="M33.1396 17.9333L37.4363 12.9755C37.4363 12.9755 34.858 11.8513 33.1396 11.3229C30.6233 10.5492 29.1618 9.9743 26.5293 10.0009C24.0232 10.0262 22.5194 10.2608 20.2495 11.3229C17.8393 12.4507 16.5578 13.4909 14.9612 15.6197C13.3647 17.7484 12.3616 19.2389 12.3171 21.8995C12.2883 23.6213 12.6152 24.6199 13.3086 26.1962C14.234 28.2997 15.2423 29.2793 16.9443 30.8234C18.748 32.4597 20.1624 32.8457 22.2326 34.1285C23.9073 35.1663 25.0328 35.4912 26.5293 36.7727C28.9228 38.8222 31.0104 40.2353 31.1565 43.383C31.2436 45.2603 30.9945 46.5316 29.8344 48.0102C28.2211 50.0664 26.1546 50.058 23.5546 50.3238C20.9578 50.5893 16.9443 49.3323 16.9443 49.3323L14.9612 52.6374C14.9612 52.6374 19.2937 54.4582 22.2326 54.951C25.6696 55.5274 27.9148 56.2304 31.1565 54.951C34.2175 53.743 36.3279 52.4307 37.4363 49.3323C38.2189 47.1447 38.1608 45.5905 37.4363 43.383C36.6066 40.8547 36.5166 38.7992 34.7922 36.7727C32.3051 33.85 29.8344 30.8234 29.8344 30.8234L22.2326 26.1962C22.2326 26.1962 20.1998 23.6966 20.2495 21.8995C20.2958 20.2221 22.2326 17.9333 22.2326 17.9333C22.2326 17.9333 23.9161 15.6623 26.5293 15.6197C29.264 15.575 33.1396 17.9333 33.1396 17.9333Z" stroke="black"/>
<path id="S-2" d="M36.4448 17.9333L40.7415 12.9755C40.7415 12.9755 38.1632 11.8513 36.4448 11.3229C33.9284 10.5492 32.4669 9.9743 29.8344 10.0009C27.3284 10.0262 25.8246 10.2608 23.5546 11.3229C21.1445 12.4507 19.863 13.4909 18.2664 15.6197C16.6698 17.7484 15.6668 19.2389 15.6223 21.8995C15.5935 23.6213 15.9204 24.6199 16.6138 26.1962C17.5392 28.2997 18.5474 29.2793 20.2495 30.8234C22.0532 32.4597 23.4676 32.8457 25.5377 34.1285C27.2125 35.1663 28.3379 35.4912 29.8344 36.7727C32.2279 38.8222 34.3156 40.2353 34.4617 43.383C34.5488 45.2603 34.2997 46.5316 33.1396 48.0102C31.5263 50.0664 29.4598 50.058 26.8598 50.3238C24.263 50.5893 20.2495 49.3323 20.2495 49.3323L18.2664 52.6374C18.2664 52.6374 22.5989 54.4582 25.5377 54.951C28.9748 55.5274 31.22 56.2304 34.4617 54.951C37.5227 53.743 39.633 52.4307 40.7415 49.3323C41.524 47.1447 41.4659 45.5905 40.7415 43.383C39.9117 40.8547 39.8218 38.7992 38.0973 36.7727C35.6103 33.85 33.1396 30.8234 33.1396 30.8234L25.5377 26.1962C25.5377 26.1962 23.505 23.6966 23.5546 21.8995C23.601 20.2221 25.5377 17.9333 25.5377 17.9333C25.5377 17.9333 27.2212 15.6623 29.8344 15.6197C32.5691 15.575 36.4448 17.9333 36.4448 17.9333Z" stroke="black"/>
<path id="S-1" d="M30.8242 18.2629L35.121 13.3052C35.121 13.3052 32.5426 12.181 30.8242 11.6526C28.3079 10.8788 26.8464 10.3039 24.2139 10.3305C21.7079 10.3558 20.2041 10.5904 17.9341 11.6526C15.524 12.7803 14.2424 13.8205 12.6459 15.9493C11.0493 18.078 10.0463 19.5685 10.0017 22.2291C9.97294 23.9509 10.2999 24.9495 10.9933 26.5258C11.9186 28.6294 12.9269 29.6089 14.629 31.153C16.4327 32.7894 17.8471 33.1754 19.9172 34.4582C21.592 35.496 22.7174 35.8208 24.2139 37.1023C26.6074 39.1519 28.6951 40.5649 28.8412 43.7126C28.9283 45.5899 28.6792 46.8613 27.5191 48.3398C25.9058 50.396 23.8393 50.3876 21.2393 50.6534C18.6425 50.919 14.629 49.6619 14.629 49.6619L12.6459 52.9671C12.6459 52.9671 16.9783 54.7878 19.9172 55.2807C23.3542 55.8571 25.5995 56.5601 28.8412 55.2807C31.9021 54.0726 34.0125 52.7604 35.121 49.6619C35.9035 47.4743 35.8454 45.9201 35.121 43.7126C34.2912 41.1844 34.2013 39.1288 32.4768 37.1023C29.9898 34.1796 27.5191 31.153 27.5191 31.153L19.9172 26.5258C19.9172 26.5258 17.8845 24.0262 17.9341 22.2291C17.9805 20.5518 19.9172 18.2629 19.9172 18.2629C19.9172 18.2629 21.6007 15.9919 24.2139 15.9493C26.9486 15.9047 30.8242 18.2629 30.8242 18.2629Z" stroke="black"/>
</g>
</g>
</svg>
