<svg width="33" height="48" viewBox="0 0 33 48" fill="none" xmlns="http://www.w3.org/2000/svg">
<g id="Logo-clean">
<path id="S-3" d="M24.1396 8.93327L28.4363 3.97553C28.4363 3.97553 25.858 2.85134 24.1396 2.32295C21.6233 1.54919 20.1618 0.974295 17.5293 1.00089C15.0232 1.0262 13.5194 1.26078 11.2495 2.32295C8.83934 3.45071 7.55779 4.49091 5.96123 6.61966C4.36467 8.74841 3.36161 10.2389 3.3171 12.8995C3.2883 14.6213 3.61525 15.6199 4.30865 17.1962C5.23399 19.2997 6.24227 20.2793 7.94432 21.8234C9.74804 23.4597 11.1624 23.8457 13.2326 25.1285C14.9073 26.1663 16.0328 26.4912 17.5293 27.7727C19.9228 29.8222 22.0104 31.2353 22.1565 34.383C22.2436 36.2603 21.9945 37.5316 20.8344 39.0102C19.2211 41.0664 17.1546 41.058 14.5546 41.3238C11.9578 41.5893 7.94432 40.3323 7.94432 40.3323L5.96123 43.6374C5.96123 43.6374 10.2937 45.4582 13.2326 45.951C16.6696 46.5274 18.9148 47.2304 22.1565 45.951C25.2175 44.743 27.3279 43.4307 28.4363 40.3323C29.2189 38.1447 29.1608 36.5905 28.4363 34.383C27.6066 31.8547 27.5166 29.7992 25.7922 27.7727C23.3051 24.85 20.8344 21.8234 20.8344 21.8234L13.2326 17.1962C13.2326 17.1962 11.1998 14.6966 11.2495 12.8995C11.2958 11.2221 13.2326 8.93327 13.2326 8.93327C13.2326 8.93327 14.9161 6.6623 17.5293 6.61966C20.264 6.57503 24.1396 8.93327 24.1396 8.93327Z" stroke="black"/>
<path id="S-2" d="M27.4448 8.93327L31.7415 3.97553C31.7415 3.97553 29.1632 2.85134 27.4448 2.32295C24.9284 1.54919 23.4669 0.974295 20.8344 1.00089C18.3284 1.0262 16.8246 1.26078 14.5546 2.32295C12.1445 3.45071 10.863 4.49091 9.26639 6.61966C7.66983 8.74841 6.66677 10.2389 6.62226 12.8995C6.59346 14.6213 6.92041 15.6199 7.61381 17.1962C8.53915 19.2997 9.54743 20.2793 11.2495 21.8234C13.0532 23.4597 14.4676 23.8457 16.5377 25.1285C18.2125 26.1663 19.3379 26.4912 20.8344 27.7727C23.2279 29.8222 25.3156 31.2353 25.4617 34.383C25.5488 36.2603 25.2997 37.5316 24.1396 39.0102C22.5263 41.0664 20.4598 41.058 17.8598 41.3238C15.263 41.5893 11.2495 40.3323 11.2495 40.3323L9.26639 43.6374C9.26639 43.6374 13.5989 45.4582 16.5377 45.951C19.9748 46.5274 22.22 47.2304 25.4617 45.951C28.5227 44.743 30.633 43.4307 31.7415 40.3323C32.524 38.1447 32.4659 36.5905 31.7415 34.383C30.9117 31.8547 30.8218 29.7992 29.0973 27.7727C26.6103 24.85 24.1396 21.8234 24.1396 21.8234L16.5377 17.1962C16.5377 17.1962 14.505 14.6966 14.5546 12.8995C14.601 11.2221 16.5377 8.93327 16.5377 8.93327C16.5377 8.93327 18.2212 6.6623 20.8344 6.61966C23.5691 6.57503 27.4448 8.93327 27.4448 8.93327Z" stroke="black"/>
<path id="S-1" d="M21.8242 9.26289L26.121 4.30516C26.121 4.30516 23.5426 3.18097 21.8242 2.65258C19.3079 1.87882 17.8464 1.30392 15.2139 1.33051C12.7079 1.35583 11.2041 1.59041 8.93412 2.65258C6.52399 3.78034 5.24244 4.82053 3.64587 6.94928C2.04931 9.07803 1.04626 10.5685 1.00175 13.2291C0.972945 14.9509 1.2999 15.9495 1.9933 17.5258C2.91864 19.6294 3.92692 20.6089 5.62897 22.153C7.43269 23.7894 8.84709 24.1754 10.9172 25.4582C12.592 26.496 13.7174 26.8208 15.2139 28.1023C17.6074 30.1519 19.6951 31.5649 19.8412 34.7126C19.9283 36.5899 19.6792 37.8613 18.5191 39.3398C16.9058 41.396 14.8393 41.3876 12.2393 41.6534C9.64246 41.919 5.62897 40.6619 5.62897 40.6619L3.64587 43.9671C3.64587 43.9671 7.97835 45.7878 10.9172 46.2807C14.3542 46.8571 16.5995 47.5601 19.8412 46.2807C22.9021 45.0726 25.0125 43.7604 26.121 40.6619C26.9035 38.4743 26.8454 36.9201 26.121 34.7126C25.2912 32.1844 25.2013 30.1288 23.4768 28.1023C20.9898 25.1796 18.5191 22.153 18.5191 22.153L10.9172 17.5258C10.9172 17.5258 8.88448 15.0262 8.93412 13.2291C8.98046 11.5518 10.9172 9.26289 10.9172 9.26289C10.9172 9.26289 12.6007 6.99192 15.2139 6.94928C17.9486 6.90466 21.8242 9.26289 21.8242 9.26289Z" stroke="black"/>
</g>
</svg>
